<?xml version="1.0" standalone="no"?>
<!DOCTYPE svg PUBLIC "-//W3C//DTD SVG 20010904//EN"
 "http://www.w3.org/TR/2001/REC-SVG-20010904/DTD/svg10.dtd">
<svg version="1.0" xmlns="http://www.w3.org/2000/svg"
 width="437.000000pt" height="216.000000pt" viewBox="0 0 437.000000 216.000000"
 preserveAspectRatio="xMidYMid meet">
<metadata>
Created by potrace 1.16, written by Peter Selinger 2001-2019
</metadata>
<g transform="translate(0.000000,216.000000) scale(0.100000,-0.100000)"
fill="#000000" stroke="none">
<path d="M1134 2112 c-106 -73 -247 -228 -280 -307 -16 -40 -18 -88 -4 -115 5
-10 30 -26 54 -35 25 -10 47 -23 50 -30 6 -17 -31 -68 -133 -180 -44 -49 -81
-93 -81 -96 0 -3 -69 -70 -152 -148 -175 -163 -259 -215 -339 -209 -36 2 -45
7 -47 25 -2 12 4 35 12 51 9 17 19 56 22 87 6 52 5 58 -21 85 -99 103 -259
-100 -200 -253 24 -62 42 -77 118 -90 83 -14 194 9 279 57 115 65 569 520 678
681 26 39 62 84 80 100 34 31 83 102 155 220 40 65 51 107 46 167 -1 21 -57
38 -122 38 -38 0 -57 -8 -115 -48z m126 -48 c0 -23 -68 -144 -105 -184 -17
-19 -48 -57 -70 -83 -34 -44 -41 -48 -68 -43 -80 16 -78 67 7 171 61 74 96
104 151 131 58 28 85 30 85 8z"/>
<path d="M3675 1829 c-28 -28 -76 -73 -108 -100 l-58 -49 -170 0 c-98 0 -178
-4 -190 -10 -48 -26 1 -65 69 -55 20 3 81 2 136 -2 l98 -8 -78 -85 c-43 -47
-165 -171 -271 -276 -177 -174 -193 -193 -193 -225 0 -39 6 -49 40 -72 27 -19
101 -23 131 -7 22 12 24 47 4 74 -11 14 -11 23 -2 39 31 55 153 193 262 296
66 62 134 127 150 145 17 17 54 50 82 74 l51 42 233 0 c129 0 244 3 257 6 14
4 22 14 22 29 0 22 0 22 -215 27 -118 2 -218 7 -221 11 -4 4 16 31 43 60 48
50 72 104 58 127 -3 5 -23 10 -43 10 -32 0 -45 -8 -87 -51z"/>
<path d="M1961 1492 c-31 -31 -83 -90 -116 -130 -33 -39 -65 -72 -72 -72 -7 0
-22 9 -33 20 -50 50 -150 9 -325 -132 -110 -88 -137 -120 -142 -170 -4 -31 -1
-47 9 -56 26 -21 128 -26 195 -9 56 15 64 15 93 1 23 -12 40 -14 68 -7 41 10
51 32 32 68 -8 14 -9 29 -3 39 16 30 232 241 321 316 61 51 95 87 106 113 22
52 8 77 -41 77 -31 0 -44 -8 -92 -58z m-287 -258 c9 -3 16 -11 16 -18 -1 -6
-43 -55 -94 -108 -91 -97 -93 -98 -139 -98 -41 0 -47 3 -47 21 0 12 9 37 21
55 25 42 128 123 178 140 43 16 45 16 65 8z"/>
<path d="M2845 1325 c-44 -19 -102 -79 -113 -117 -5 -18 -18 -64 -27 -101 -20
-80 -48 -107 -93 -91 -35 12 -40 46 -13 80 24 31 27 72 7 99 -10 14 -21 17
-51 12 -49 -8 -81 -39 -100 -98 -38 -112 23 -189 150 -189 47 0 66 6 105 31
45 29 49 35 69 107 34 122 48 143 113 174 42 20 59 35 64 53 13 51 -42 70
-111 40z"/>
<path d="M3486 1324 c-27 -15 -28 -19 -23 -65 5 -44 3 -52 -26 -87 -18 -21
-52 -57 -75 -79 -32 -31 -42 -47 -42 -72 0 -43 14 -68 50 -86 38 -20 79 -19
168 4 90 24 124 45 120 74 -3 25 -24 26 -97 8 -56 -15 -71 -9 -71 27 0 20 14
41 53 79 28 28 62 56 74 62 13 6 27 20 33 31 9 17 4 28 -36 70 -51 55 -77 61
-128 34z"/>
<path d="M3935 1274 c-21 -25 -61 -64 -89 -86 -70 -55 -136 -135 -136 -163 0
-68 46 -98 130 -84 69 12 90 11 90 -5 0 -17 -61 -108 -125 -186 -25 -30 -71
-86 -103 -125 -136 -166 -288 -293 -487 -407 -101 -59 -131 -70 -285 -108
-153 -39 -229 -46 -343 -31 -71 8 -103 18 -170 53 -149 78 -335 243 -428 383
-26 39 -65 89 -87 113 -34 37 -45 43 -74 40 -28 -3 -33 -7 -36 -32 -5 -38 58
-162 107 -213 87 -90 253 -235 302 -264 30 -17 70 -44 89 -59 95 -75 191 -100
385 -100 128 0 152 3 277 35 239 62 344 115 595 307 141 108 363 363 470 543
77 127 175 235 290 318 28 21 54 43 56 50 8 22 -13 46 -47 52 -58 11 -95 -14
-216 -149 -94 -104 -121 -128 -153 -137 -45 -12 -85 -5 -94 16 -9 24 22 61
102 119 79 59 110 103 101 142 -5 20 -13 24 -45 24 -34 0 -43 -6 -76 -46z"/>
<path d="M1135 1303 c-11 -3 -29 -12 -40 -19 -25 -18 -66 -18 -91 1 -27 20
-77 18 -134 -6 -71 -31 -80 -69 -15 -69 19 0 36 -4 39 -9 6 -10 -88 -104 -145
-146 -40 -30 -49 -43 -49 -73 0 -33 40 -49 82 -31 18 7 92 71 165 142 136 133
161 147 187 105 15 -25 -35 -93 -104 -141 -85 -59 -99 -127 -26 -127 43 0 70
21 171 130 118 128 138 178 90 225 -24 25 -75 32 -130 18z"/>
<path d="M2067 1271 c-19 -22 -73 -71 -118 -111 -46 -39 -91 -85 -102 -102
-26 -44 -19 -89 16 -106 42 -20 125 -16 179 8 l47 20 33 -20 c43 -26 90 -25
163 3 50 19 61 27 63 49 4 31 -26 45 -58 28 -23 -12 -40 -6 -40 15 0 7 43 53
96 101 77 71 94 92 92 112 -4 36 -29 48 -65 33 -16 -6 -86 -68 -156 -137 -70
-68 -140 -129 -155 -135 -30 -12 -92 -4 -92 12 0 19 33 60 59 74 48 25 141
122 141 147 0 59 -54 64 -103 9z"/>
</g>
</svg>
