<svg xmlns="http://www.w3.org/2000/svg" viewBox="0 0 535.71 384.93"><defs><style>.a{isolation:isolate;}.b{fill:#f9cad2;}.c{fill:#00cfbe;}.d,.m{fill:none;}.d,.e,.f,.g,.h{stroke:#011635;}.d,.e,.f,.g,.h,.m{stroke-linecap:round;stroke-linejoin:round;stroke-width:1.5px;}.e,.n{fill:#011635;}.f,.j{fill:#fff;}.g{fill:#f4dc90;}.h{fill:#d0d0d6;}.i{fill:#f99aaa;}.k{fill:#8791ff;}.l{opacity:0.45;mix-blend-mode:multiply;}.m{stroke:#8791ff;}</style></defs><g class="a"><path class="b" d="M391.41,61.47C390.13,49,396.12,31.64,404.92,33.2S402.73,48.35,410,62.41Z"/><path class="c" d="M393.84,69.11S408.05,55.05,415.44,30s40.09-25.85,46.15,5.8-22.42,76.08-22.42,76.08Z"/><path class="d" d="M441.09,37.41s1.84,30.1-25,52.7"/><path class="d" d="M482,45s4.75,16.45-7.52,28.83"/><path class="d" d="M91.24,308.7s3.1,14.83-4.81,27.89"/><path class="d" d="M76.07,308.7s-.44,11.85-6.51,22"/><path class="c" d="M223.87,318.52c19.22,24.56,38.73,23.78,62.21,23.7s50.11,6.47,61.91,21.58,47.46,19.29,45.85-17S339.67,278,297.31,279.38s-70.84-5-70.84-5Z"/><path class="d" d="M225.22,294.82c65.86,34,111.92,11.75,140.12,47.4"/><path class="d" d="M410,346.34s10.58,7.26,10.24,25.85"/><path class="b" d="M94.32,64.5c-8.29-17.1-6.24-44,5.52-43.73S100,49.68,115.57,62Z"/><path class="c" d="M52.8,98.3s-46.29-84.13-2-97.18c37.25-11,29.41,62.17,69.7,78.36Z"/><path class="d" d="M54.78,23.27s5.31,37.45,29.56,66.26"/><path class="d" d="M27.88,193.32s22.43,6.31,41.68,2.59"/><path class="d" d="M18.38,74.42s13.06,5.37,19.39,18.85"/><path class="d" d="M138.19,35.53s-6,10.47,0,28.58"/><rect class="e" x="64.86" y="58.11" width="371.64" height="254.75" rx="12"/><rect class="f" x="57.06" y="58.11" width="371.64" height="254.75" rx="12"/><path class="g" d="M69.06,312.85H416.7a12,12,0,0,0,12-12V288.62H57.06v12.23A12,12,0,0,0,69.06,312.85Z"/><path class="h" d="M248.79,300.74a5.92,5.92,0,1,0-5.91,5.91A5.92,5.92,0,0,0,248.79,300.74Z"/><path class="g" d="M416.7,58.11H69.06a12,12,0,0,0-12,12H428.7A12,12,0,0,0,416.7,58.11Z"/><rect class="b" x="81.82" y="90.11" width="134.37" height="91.27"/><rect class="i" x="81.82" y="178.11" width="134.37" height="3.27"/><rect class="d" x="88.16" y="96.44" width="6.16" height="6.16"/><line class="d" x1="106.65" y1="102.61" x2="100.49" y2="102.61"/><polyline class="d" points="104.64 155.52 122.73 120.49 140.4 147.12 161.25 126.1 174.65 141.79 195.88 151.96"/><path class="f" d="M106.85,155.52a2.21,2.21,0,1,0-2.21,2.21A2.21,2.21,0,0,0,106.85,155.52Z"/><path class="f" d="M163.46,126.1a2.21,2.21,0,1,0-2.21,2.21A2.21,2.21,0,0,0,163.46,126.1Z"/><circle class="f" cx="140.4" cy="147.12" r="2.21"/><path class="f" d="M176.86,141.79a2.21,2.21,0,1,0-2.21,2.21A2.21,2.21,0,0,0,176.86,141.79Z"/><path class="f" d="M124.94,120.49a2.21,2.21,0,1,0-2.21,2.21A2.21,2.21,0,0,0,124.94,120.49Z"/><path class="f" d="M198.09,152a2.21,2.21,0,1,0-2.21,2.21A2.2,2.2,0,0,0,198.09,152Z"/><line class="d" x1="104.64" y1="166.64" x2="195.88" y2="166.64"/><rect class="j" x="174.43" y="96.44" width="35.03" height="6.16"/><rect class="k" x="191.59" y="105.54" width="17.87" height="6.16"/><rect class="b" x="81.82" y="189.58" width="134.37" height="79.04"/><rect class="i" x="81.82" y="265.35" width="134.37" height="3.27"/><rect class="d" x="88.16" y="195.91" width="6.16" height="6.16"/><line class="d" x1="106.65" y1="202.08" x2="100.49" y2="202.08"/><rect class="k" x="94.32" y="210.33" width="115.13" height="4.42"/><rect class="j" x="94.32" y="220.8" width="115.13" height="4.42"/><rect class="j" x="94.32" y="231.27" width="71.35" height="4.42"/><rect class="k" x="94.32" y="241.74" width="51.62" height="4.42"/><rect class="k" x="151.46" y="241.74" width="29" height="4.42"/><rect class="j" x="94.32" y="252.2" width="31.4" height="4.42"/><rect class="b" x="230.39" y="90.11" width="173.54" height="22.6"/><rect class="i" x="230.39" y="112.7" width="173.54" height="3.27"/><line class="d" x1="236.73" y1="96.44" x2="242.89" y2="96.44"/><line class="d" x1="249.06" y1="96.44" x2="255.22" y2="96.44"/><rect class="d" x="236.73" y="94.05" width="6.16" height="2.39"/><rect class="k" x="242.89" y="101.85" width="61.64" height="4.42"/><rect class="j" x="308.3" y="101.85" width="25.87" height="4.42"/><rect class="b" x="230.39" y="120.56" width="173.54" height="22.6"/><rect class="i" x="230.39" y="143.16" width="173.54" height="3.27"/><line class="d" x1="236.73" y1="126.89" x2="242.89" y2="126.89"/><line class="d" x1="249.06" y1="126.89" x2="255.22" y2="126.89"/><rect class="d" x="236.73" y="124.5" width="6.16" height="2.39"/><rect class="k" x="242.89" y="132.3" width="28.18" height="4.42"/><rect class="k" x="305.54" y="132.3" width="82.29" height="4.42"/><rect class="j" x="275.76" y="132.3" width="25.87" height="4.42"/><rect class="b" x="230.39" y="151.01" width="173.54" height="22.6"/><rect class="i" x="230.39" y="173.61" width="173.54" height="3.27"/><line class="d" x1="236.73" y1="157.35" x2="242.89" y2="157.35"/><line class="d" x1="249.06" y1="157.35" x2="255.22" y2="157.35"/><rect class="d" x="236.73" y="154.96" width="6.16" height="2.39"/><rect class="k" x="242.89" y="162.75" width="61.64" height="4.42"/><rect class="b" x="230.39" y="181.46" width="173.54" height="22.6"/><rect class="i" x="230.39" y="204.06" width="173.54" height="3.27"/><line class="d" x1="236.73" y1="187.8" x2="242.89" y2="187.8"/><line class="d" x1="249.06" y1="187.8" x2="255.22" y2="187.8"/><rect class="d" x="236.73" y="185.41" width="6.16" height="2.39"/><rect class="k" x="242.89" y="193.2" width="43.18" height="4.42"/><rect class="j" x="291.08" y="193.2" width="72.69" height="4.42"/><rect class="j" x="369.23" y="193.2" width="11.97" height="4.42"/><rect class="b" x="230.39" y="216.99" width="173.54" height="51.63"/><rect class="i" x="230.39" y="265.35" width="173.54" height="3.27"/><rect class="d" x="236.73" y="223.33" width="6.16" height="6.16"/><line class="d" x1="255.22" y1="229.49" x2="249.06" y2="229.49"/><rect class="k" x="263.3" y="230.34" width="24.92" height="24.92"/><line class="d" x1="269.59" y1="248.98" x2="281.93" y2="236.63"/><line class="d" x1="281.93" y1="248.98" x2="269.59" y2="236.63"/><rect class="k" x="297.31" y="230.34" width="24.92" height="24.92"/><line class="d" x1="303.6" y1="248.98" x2="315.95" y2="236.63"/><rect class="k" x="331.33" y="230.34" width="24.92" height="24.92"/><rect class="d" x="338.77" y="237.21" width="11.18" height="11.18"/><rect class="k" x="365.34" y="230.34" width="24.92" height="24.92"/><line class="d" x1="372.21" y1="237.21" x2="372.21" y2="237.21"/><line class="d" x1="383.4" y1="237.21" x2="383.4" y2="237.21"/><line class="d" x1="372.21" y1="248.4" x2="372.21" y2="248.4"/><line class="d" x1="383.4" y1="248.4" x2="383.4" y2="248.4"/><g class="l"><rect class="k" x="354.99" y="200.32" width="158.81" height="158.81" rx="7.2"/><rect class="m" x="354.99" y="200.32" width="158.81" height="158.81" rx="7.2"/></g><rect class="j" x="347.99" y="193.32" width="158.81" height="158.81" rx="7.2"/><rect class="d" x="347.99" y="193.32" width="158.81" height="158.81" rx="7.2"/><line class="d" x1="357.32" y1="207.63" x2="363.01" y2="201.95"/><line class="d" x1="357.32" y1="201.95" x2="363.01" y2="207.63"/><path class="k" d="M378.93,246.58a12.06,12.06,0,0,0-12.07,12.07v2.92H391v-2.92A12.06,12.06,0,0,0,378.93,246.58Z"/><path class="k" d="M385.78,237.32a6.85,6.85,0,1,0-6.85,6.85A6.85,6.85,0,0,0,385.78,237.32Z"/><rect class="d" x="363.01" y="219.21" width="31.85" height="42.37"/><rect class="k" x="402.75" y="246.31" width="35.03" height="6.16" transform="translate(840.53 498.78) rotate(180)"/><rect class="k" x="402.75" y="255.41" width="17.87" height="6.16" transform="translate(823.37 516.98) rotate(180)"/><path class="d" d="M491.78,257.81a3.76,3.76,0,1,0-3.76,3.76A3.76,3.76,0,0,0,491.78,257.81Z"/><rect class="b" x="363.01" y="271.44" width="128.78" height="25.32"/><rect class="k" x="369.83" y="277.17" width="115.13" height="4.42"/><rect class="j" x="369.83" y="287.64" width="43.52" height="4.42"/><rect class="b" x="363.01" y="306.62" width="128.78" height="25.32"/><rect class="k" x="369.83" y="312.36" width="52.68" height="4.42"/><rect class="j" x="426.41" y="312.36" width="58.56" height="4.42"/><rect class="j" x="393.84" y="322.83" width="42.06" height="4.42"/><rect class="j" x="369.83" y="322.83" width="20.12" height="4.42"/><path class="d" d="M353.74,277.24c-15.3,0-14.48-12.84-31.42-12.84h0a8.26,8.26,0,0,1-8.26-8.25v-3.29"/><path class="e" d="M359.42,277.24h0a2.84,2.84,0,0,0-2.84-2.84h0a2.84,2.84,0,0,0-2.84,2.84h0a2.84,2.84,0,0,0,2.84,2.84h0A2.84,2.84,0,0,0,359.42,277.24Z"/><path class="e" d="M316.91,250h0a2.85,2.85,0,0,0-2.85-2.84h0a2.84,2.84,0,0,0-2.84,2.84h0a2.85,2.85,0,0,0,2.84,2.85h0A2.86,2.86,0,0,0,316.91,250Z"/><g class="l"><rect class="k" x="424.06" y="72.11" width="110.9" height="110.9" rx="7.2"/><rect class="m" x="424.06" y="72.11" width="110.9" height="110.9" rx="7.2"/></g><rect class="j" x="417.06" y="65.11" width="110.9" height="110.9" rx="7.2"/><rect class="d" x="417.06" y="65.11" width="110.9" height="110.9" rx="7.2"/><line class="d" x1="426.39" y1="79.42" x2="432.08" y2="73.74"/><line class="d" x1="426.39" y1="73.74" x2="432.08" y2="79.42"/><path class="d" d="M393.13,96.2c16.94,0,16.12,12.84,31.42,12.84"/><path class="e" d="M430.24,109h0a2.84,2.84,0,0,0-2.84-2.84h0a2.85,2.85,0,0,0-2.85,2.84h0a2.85,2.85,0,0,0,2.85,2.84h0A2.84,2.84,0,0,0,430.24,109Z"/><path class="e" d="M393.13,96.2h0a2.84,2.84,0,0,0-2.84-2.84h0a2.84,2.84,0,0,0-2.84,2.84h0A2.84,2.84,0,0,0,390.29,99h0A2.84,2.84,0,0,0,393.13,96.2Z"/><path class="e" d="M430.24,126.65h0a2.84,2.84,0,0,0-2.84-2.84h0a2.85,2.85,0,0,0-2.85,2.84h0a2.85,2.85,0,0,0,2.85,2.84h0A2.84,2.84,0,0,0,430.24,126.65Z"/><path class="e" d="M393.13,126.65h0a2.84,2.84,0,0,0-2.84-2.84h0a2.84,2.84,0,0,0-2.84,2.84h0a2.84,2.84,0,0,0,2.84,2.84h0A2.84,2.84,0,0,0,393.13,126.65Z"/><line class="d" x1="393.13" y1="126.65" x2="424.55" y2="126.65"/><path class="d" d="M393.13,157.1c16.94,0,16.12-12.84,31.42-12.84"/><path class="e" d="M430.24,144.26h0a2.85,2.85,0,0,1-2.84,2.85h0a2.86,2.86,0,0,1-2.85-2.85h0a2.85,2.85,0,0,1,2.85-2.84h0A2.84,2.84,0,0,1,430.24,144.26Z"/><path class="e" d="M393.13,157.1h0a2.85,2.85,0,0,1-2.84,2.85h0a2.85,2.85,0,0,1-2.84-2.85h0a2.84,2.84,0,0,1,2.84-2.84h0A2.84,2.84,0,0,1,393.13,157.1Z"/><g class="l"><rect class="k" x="111.92" y="304.22" width="125.99" height="68.29" rx="7.2"/><rect class="m" x="111.92" y="304.22" width="125.99" height="68.29" rx="7.2"/></g><rect class="j" x="104.92" y="297.22" width="125.99" height="68.29" rx="7.2"/><rect class="d" x="104.92" y="297.22" width="125.99" height="68.29" rx="7.2"/><line class="d" x1="114.25" y1="311.54" x2="119.94" y2="305.85"/><line class="d" x1="114.25" y1="305.85" x2="119.94" y2="311.54"/><path d="M169.58,319.11v17.55a10.05,10.05,0,0,1-1.34,5.27,8.72,8.72,0,0,1-3.89,3.47,13.8,13.8,0,0,1-6,1.21q-5.24,0-8.13-2.68a9.51,9.51,0,0,1-2.89-7.34V319.11h5.73v16.61a7,7,0,0,0,1.26,4.6c.84,1,2.24,1.47,4.18,1.47a5.14,5.14,0,0,0,4.09-1.48,7,7,0,0,0,1.27-4.63V319.11Z"/><path d="M176.23,346.24V319.11H182v27.13Z"/><path d="M471,110.41V128a10.17,10.17,0,0,1-1.34,5.27,8.78,8.78,0,0,1-3.89,3.47,13.8,13.8,0,0,1-6,1.21c-3.49,0-6.2-.9-8.13-2.68a9.52,9.52,0,0,1-2.89-7.34V110.41h5.73V127a7,7,0,0,0,1.26,4.6c.84,1,2.23,1.46,4.18,1.46a5.14,5.14,0,0,0,4.09-1.47,7,7,0,0,0,1.27-4.63V110.41Z"/><path d="M499.55,137.54H493l-6.31-10.26-6.31,10.26H474.2l9-14-8.42-13.14h6.34l5.85,9.76,5.73-9.76h6.2l-8.52,13.45Z"/><path class="d" d="M168.25,301c0-15.3-12.84-14.48-12.84-31.42h0a8.25,8.25,0,0,0-8.25-8.25h-3.29"/><rect class="e" x="165.41" y="300.97" width="5.68" height="5.68" rx="2.84"/><path class="e" d="M141,264.14h0a2.84,2.84,0,0,1-2.84-2.84h0a2.85,2.85,0,0,1,2.84-2.85h0a2.85,2.85,0,0,1,2.84,2.85h0A2.84,2.84,0,0,1,141,264.14Z"/><g class="l"><rect class="k" x="258.5" y="337.74" width="73.45" height="46.44" rx="7.2"/><rect class="m" x="258.5" y="337.74" width="73.45" height="46.44" rx="7.2"/></g><rect class="j" x="251.5" y="330.74" width="73.45" height="46.44" rx="7.2"/><rect class="d" x="251.5" y="330.74" width="73.45" height="46.44" rx="7.2"/><line class="d" x1="260.83" y1="345.06" x2="266.52" y2="339.37"/><line class="d" x1="260.83" y1="339.37" x2="266.52" y2="345.06"/><path class="e" d="M278.37,363.8a2.66,2.66,0,1,0-2.66,2.67A2.66,2.66,0,0,0,278.37,363.8Z"/><path class="e" d="M306.22,344.12a2.67,2.67,0,1,0-2.67,2.67A2.67,2.67,0,0,0,306.22,344.12Z"/><path class="d" d="M275.71,363.8s23.19,6.13,27.84-19.68"/><path class="d" d="M223.87,343.94c16.94,0,16.12,12.84,31.42,12.84"/><path class="e" d="M261,356.78h0a2.84,2.84,0,0,0-2.84-2.84h0a2.84,2.84,0,0,0-2.84,2.84h0a2.85,2.85,0,0,0,2.84,2.85h0A2.85,2.85,0,0,0,261,356.78Z"/><path class="e" d="M223.87,343.94h0A2.84,2.84,0,0,0,221,341.1h0a2.84,2.84,0,0,0-2.84,2.84h0a2.84,2.84,0,0,0,2.84,2.84h0A2.84,2.84,0,0,0,223.87,343.94Z"/><g class="l"><rect class="k" x="7.75" y="213.33" width="69.61" height="111.74" rx="7.66"/><rect class="m" x="7.75" y="213.33" width="69.61" height="111.74" rx="7.66"/></g><rect class="j" x="0.75" y="206.33" width="69.61" height="111.74" rx="7.66"/><rect class="d" x="0.75" y="206.33" width="69.61" height="111.74" rx="7.66"/><line class="d" x1="10.08" y1="220.65" x2="15.77" y2="214.97"/><line class="d" x1="10.08" y1="214.97" x2="15.77" y2="220.65"/><path class="k" d="M58.87,248.19a.74.74,0,0,0-.25-.52.68.68,0,0,0-.54-.19c-14.41.85-21.8-12-21.87-12.16a.78.78,0,0,0-1.31,0c-.07.13-7.48,13-21.87,12.16a.67.67,0,0,0-.54.19.74.74,0,0,0-.25.52c0,.34-1.33,34.43,23.2,38.24h.23C60.2,282.62,58.89,248.53,58.87,248.19Z"/><path class="d" d="M94.16,222.05c-16.94,0-16.12,12.84-31.42,12.84"/><path class="e" d="M57.06,234.89h0a2.84,2.84,0,0,1,2.84-2.84h0a2.84,2.84,0,0,1,2.84,2.84h0a2.84,2.84,0,0,1-2.84,2.84h0A2.84,2.84,0,0,1,57.06,234.89Z"/><path class="e" d="M94.16,222.05h0A2.84,2.84,0,0,1,97,219.21h0a2.84,2.84,0,0,1,2.84,2.84h0A2.84,2.84,0,0,1,97,224.89h0A2.84,2.84,0,0,1,94.16,222.05Z"/><g class="l"><rect class="k" x="7.75" y="91.64" width="69.61" height="94.97" rx="7.2"/><rect class="m" x="7.75" y="91.64" width="69.61" height="94.97" rx="7.2"/></g><rect class="j" x="0.75" y="84.64" width="69.61" height="94.97" rx="7.2"/><rect class="d" x="0.75" y="84.64" width="69.61" height="94.97" rx="7.2"/><line class="d" x1="10.08" y1="98.95" x2="15.77" y2="93.27"/><line class="d" x1="10.08" y1="93.27" x2="15.77" y2="98.95"/><path class="n" d="M10.3,133.29l16.7-8.6v2.48l-14.07,7.06v.07l14.07,7v2.49l-16.7-8.61Z"/><path class="n" d="M29.34,145.28l10.05-26.1h2.44l-10.07,26.1Z"/><path class="n" d="M60.81,135.27,44.1,143.84v-2.49l14.19-7v-.07L44.1,127.17v-2.48l16.71,8.56Z"/><path class="d" d="M94.16,120.76c-16.94,0-16.12-12.84-31.42-12.84"/><path class="e" d="M57.06,107.92h0a2.84,2.84,0,0,0,2.84,2.84h0a2.84,2.84,0,0,0,2.84-2.84h0a2.84,2.84,0,0,0-2.84-2.84h0A2.84,2.84,0,0,0,57.06,107.92Z"/><path class="e" d="M94.16,120.76h0A2.84,2.84,0,0,0,97,123.6h0a2.84,2.84,0,0,0,2.84-2.84h0A2.84,2.84,0,0,0,97,117.92h0A2.84,2.84,0,0,0,94.16,120.76Z"/><g class="l"><rect class="k" x="117.07" y="60.36" width="73.45" height="46.44" rx="7.2"/><rect class="m" x="117.07" y="60.36" width="73.45" height="46.44" rx="7.2"/></g><rect class="j" x="110.07" y="53.36" width="73.45" height="46.44" rx="7.2"/><rect class="d" x="110.07" y="53.36" width="73.45" height="46.44" rx="7.2"/><line class="d" x1="119.41" y1="67.67" x2="125.09" y2="61.99"/><line class="d" x1="119.41" y1="61.99" x2="125.09" y2="67.67"/><g class="l"><rect class="k" x="207.66" y="71.81" width="162.62" height="20.7" rx="7.2"/><rect class="m" x="207.66" y="71.81" width="162.62" height="20.7" rx="7.2"/></g><rect class="j" x="202.08" y="66.23" width="162.62" height="20.7" rx="7.2"/><rect class="d" x="202.08" y="66.23" width="162.62" height="20.7" rx="7.2"/><path class="b" d="M352.68,73.2H244.85a3.38,3.38,0,0,0-3.38,3.38h0A3.38,3.38,0,0,0,244.85,80H352.68a3.38,3.38,0,0,0,3.38-3.38h0A3.38,3.38,0,0,0,352.68,73.2Z"/><path class="k" d="M331.64,73.2H244.85a3.38,3.38,0,0,0,0,6.76h86.79Z"/><rect class="d" x="226.39" y="73.8" width="5.68" height="5.68"/><g class="l"><rect class="k" x="207.66" y="42.99" width="162.62" height="20.7" rx="7.2"/><rect class="m" x="207.66" y="42.99" width="162.62" height="20.7" rx="7.2"/></g><rect class="j" x="202.08" y="37.41" width="162.62" height="20.7" rx="7.2"/><rect class="d" x="202.08" y="37.41" width="162.62" height="20.7" rx="7.2"/><path class="b" d="M352.68,44.38H244.85a3.38,3.38,0,0,0-3.38,3.38h0a3.39,3.39,0,0,0,3.38,3.38H352.68a3.38,3.38,0,0,0,3.38-3.38h0A3.38,3.38,0,0,0,352.68,44.38Z"/><path class="k" d="M269.11,44.38H244.85a3.38,3.38,0,1,0,0,6.76h24.26Z"/><rect class="d" x="226.39" y="44.97" width="5.68" height="5.68"/><g class="l"><rect class="k" x="207.66" y="100.64" width="162.62" height="20.7" rx="7.2"/><rect class="m" x="207.66" y="100.64" width="162.62" height="20.7" rx="7.2"/></g><rect class="j" x="202.08" y="95.05" width="162.62" height="20.7" rx="7.2"/><rect class="d" x="202.08" y="95.05" width="162.62" height="20.7" rx="7.2"/><path class="b" d="M352.68,102H244.85a3.39,3.39,0,0,0-3.38,3.38h0a3.38,3.38,0,0,0,3.38,3.38H352.68a3.38,3.38,0,0,0,3.38-3.38h0A3.38,3.38,0,0,0,352.68,102Z"/><path class="k" d="M348.57,102H244.85a3.38,3.38,0,1,0,0,6.76H348.57Z"/><rect class="d" x="226.39" y="102.62" width="5.68" height="5.68"/><path class="d" d="M208.88,48.81c-16.94,0-16.12,12.85-31.42,12.85"/><path class="e" d="M171.78,61.66h0a2.85,2.85,0,0,1,2.84-2.85h0a2.85,2.85,0,0,1,2.84,2.85h0a2.84,2.84,0,0,1-2.84,2.84h0A2.84,2.84,0,0,1,171.78,61.66Z"/><path class="e" d="M208.88,48.81h0A2.85,2.85,0,0,1,211.73,46h0a2.84,2.84,0,0,1,2.84,2.84h0a2.85,2.85,0,0,1-2.84,2.85h0A2.86,2.86,0,0,1,208.88,48.81Z"/><path class="e" d="M171.78,77.27h0a2.85,2.85,0,0,1,2.84-2.85h0a2.85,2.85,0,0,1,2.84,2.85h0a2.84,2.84,0,0,1-2.84,2.84h0A2.84,2.84,0,0,1,171.78,77.27Z"/><path class="e" d="M208.88,77.27h0a2.86,2.86,0,0,1,2.85-2.85h0a2.85,2.85,0,0,1,2.84,2.85h0a2.84,2.84,0,0,1-2.84,2.84h0A2.85,2.85,0,0,1,208.88,77.27Z"/><line class="d" x1="208.88" y1="77.27" x2="177.46" y2="77.27"/><path class="d" d="M208.88,104.72c-16.94,0-16.12-12.84-31.42-12.84"/><path class="e" d="M171.78,91.88h0a2.84,2.84,0,0,0,2.84,2.84h0a2.84,2.84,0,0,0,2.84-2.84h0A2.84,2.84,0,0,0,174.62,89h0A2.84,2.84,0,0,0,171.78,91.88Z"/><path class="e" d="M208.88,104.72h0a2.85,2.85,0,0,0,2.85,2.84h0a2.84,2.84,0,0,0,2.84-2.84h0a2.84,2.84,0,0,0-2.84-2.84h0A2.85,2.85,0,0,0,208.88,104.72Z"/></g></svg>